<svg xmlns="http://www.w3.org/2000/svg" width="54.988" height="42.749" viewBox="0 0 54.988 42.749">
  <path id="barcode-solid" d="M0,106.749V64H1.933v42.749Zm2.884-.03V64h.982v42.718Zm2.915,0V64h.951v42.718Zm4.818,0V64h.951v42.718Zm3.866,0V64h1.9v42.718Zm4.818,0V64h.951v42.718Zm1.933,0V64h.951v42.718Zm1.933,0V64h.951v42.718Zm3.836,0V64h1.933v42.718Zm4.818,0V64h1.933v42.718Zm3.866,0V64H37.62v42.718Zm3.866,0V64h1.933v42.718Zm2.884,0V64h1.933v42.718Zm4.848,0V64h2.884v42.718Zm3.836,0V64H52.1v42.718h-.982Zm1.933.03V64h1.933v42.749Z" transform="translate(0 -64)" fill="#eef0f6"/>
</svg>
