<svg xmlns="http://www.w3.org/2000/svg" width="43.894" height="42.212" viewBox="0 0 43.894 42.212">
  <path id="broom-solid" d="M17.59,17.872l5.948,9S22.4,35.312,18.287,39.25,0,42.063,0,42.063s.261-1.908.754-4.57l6.489-9.248c.272-.387-.06-.958-.456-.783L2.645,29.283c.99-3.435,2.244-6.6,3.745-8.036,4.113-3.938,11.2-3.375,11.2-3.375ZM43.656,2.558,42.294.5A.975.975,0,0,0,40.757.286L24.812,14.945,22.471,11.4a.7.7,0,0,0-1.275.182l-1.737,4.5,5.948,9,4.033-1.026a.968.968,0,0,0,.435-1.451l-2.338-3.539L43.481,4.408A1.5,1.5,0,0,0,43.656,2.558Z" fill="#fafafa"/>
</svg>
