<svg id="Layer_1" data-name="Layer 1" xmlns="http://www.w3.org/2000/svg" viewBox="0 0 280.73 229.75"><defs><style>.cls-1{fill:#fff;}.cls-2{fill:#231f20;}</style></defs><title>CASH</title><rect class="cls-1" width="280.73" height="229.75" rx="41.26"/><path class="cls-2" d="M514.31,476.2c-2.41,1.08-6.63,1.93-12.41,1.93-12.66,0-21.4-7.58-21.4-20,0-11.29,5.18-19.33,12.59-23.84,4.88-3,10.46-4.35,17-4.35a25.87,25.87,0,0,1,10.31,1.82l-3.11,9.63a24.09,24.09,0,0,0-8.17-1.32,15.55,15.55,0,0,0-9.54,2.92c-3.7,2.82-6.14,7.56-6.14,13.82,0,7.1,4.38,11.25,11.65,11.25a23.44,23.44,0,0,0,8.42-1.38Z" transform="translate(-422.55 -342.16)"/><path class="cls-2" d="M534.41,466.4l-4.65,11H517.08l22.22-46.77h15.46l5,46.77H547.29l-.54-11Zm11.9-8.93-.52-8.59c-.17-2.62-.34-6.52-.57-9.42h-.14c-1.2,2.9-2.53,6.83-3.73,9.45l-3.59,8.56Z" transform="translate(-422.55 -342.16)"/><path class="cls-2" d="M567.06,465A23.83,23.83,0,0,0,578.58,468c3.26,0,6.23-1.21,6.23-4,0-2.32-2.09-3.62-6.09-5.72-4.53-2.4-9.86-6-9.86-12.55,0-9.92,8.71-15.8,19.56-15.8,6.19,0,9.52,1.18,11.72,2.24L596.5,442a19.87,19.87,0,0,0-9-2c-4.2,0-6.2,1.68-6.2,3.67,0,2.26,3.09,3.75,6.65,5.76,5.65,2.92,9.42,6.75,9.42,12.3,0,11.4-9.61,16.33-20,16.33-7.29,0-12-1.82-14.3-3.38Z" transform="translate(-422.55 -342.16)"/><path class="cls-2" d="M621.89,430.63l-3.33,17.59h15l3.33-17.59h11.89l-8.85,46.77H628l3.52-18.61h-15l-3.5,18.61H601.21l8.85-46.77Z" transform="translate(-422.55 -342.16)"/></svg>