<svg xmlns="http://www.w3.org/2000/svg" width="62" height="60" viewBox="0 0 62 60">
  <g id="Group_2945" data-name="Group 2945" transform="translate(-19 -90)">
    <g id="Group_2928" data-name="Group 2928">
      <path id="print-solid" d="M19.057,9.8V3.943a1.814,1.814,0,0,0-.4-1.155L16.733.478A1.258,1.258,0,0,0,15.771,0H4.084A1.516,1.516,0,0,0,2.722,1.633V9.8A3.032,3.032,0,0,0,0,13.068v5.717a.758.758,0,0,0,.681.817H2.722v4.9a1.516,1.516,0,0,0,1.361,1.633H17.7A1.516,1.516,0,0,0,19.057,24.5V19.6H21.1a.758.758,0,0,0,.681-.817V13.068A3.032,3.032,0,0,0,19.057,9.8ZM16.335,22.868H5.445v-4.9h10.89Zm0-11.434H5.445V3.267h8.167v2.45a.758.758,0,0,0,.681.817h2.042Zm2.042,3.675a1.137,1.137,0,0,1-1.021-1.225,1.137,1.137,0,0,1,1.021-1.225A1.137,1.137,0,0,1,19.4,13.884,1.137,1.137,0,0,1,18.376,15.109Z" transform="translate(39.11 106.932)" fill="#f27c3a"/>
      <g id="Rectangle_252" data-name="Rectangle 252" transform="translate(19 90)" fill="none" stroke="#f27c3a" stroke-width="3">
        <rect width="62" height="60" rx="12" stroke="none"/>
        <rect x="1.5" y="1.5" width="59" height="57" rx="10.5" fill="none"/>
      </g>
    </g>
  </g>
</svg>
