<svg id="info_icon" xmlns="http://www.w3.org/2000/svg" width="47" height="46.996" viewBox="0 0 47 46.996">
  <path id="Path_1978" data-name="Path 1978" d="M61.52,26.272A5.892,5.892,0,0,1,67.4,32.147V61.519A5.892,5.892,0,0,1,61.52,67.4l-29.376,0a5.892,5.892,0,0,1-5.876-5.876l0-29.372a5.892,5.892,0,0,1,5.876-5.876l29.372,0m0-2.94H32.144a8.653,8.653,0,0,0-8.812,8.812V61.516a8.653,8.653,0,0,0,8.812,8.812H61.516a8.837,8.837,0,0,0,8.812-8.812l0-29.372a8.839,8.839,0,0,0-8.812-8.812Z" transform="translate(-23.332 -23.332)" fill="#bf6325"/>
  <path id="np_info_159306_000000" d="M44.35,22.218a3.074,3.074,0,0,1,2.239-.917,2.963,2.963,0,0,1,2.19.917,3.149,3.149,0,1,1-5.345,2.239,2.884,2.884,0,0,1,.917-2.239ZM51.275,49.3H41.6v-.968a2.693,2.693,0,0,0,1.476-.561,2.514,2.514,0,0,0,.611-1.935V33.977a2.69,2.69,0,0,0-.408-1.68,2.883,2.883,0,0,0-1.629-.662v-.966h7.79V46.042a2.4,2.4,0,0,0,.408,1.68,3.116,3.116,0,0,0,1.476.611V49.3Z" transform="translate(-23.075 -11.802)" fill="#bf6325"/>
</svg>
