<svg id="Layer_1" data-name="Layer 1" xmlns="http://www.w3.org/2000/svg" viewBox="0 0 280.73 229.75"><defs><style>.cls-1{fill:#fff;}.cls-2{fill:#231f20;}</style></defs><title>K-NET</title><rect class="cls-1" width="280.73" height="229.75" rx="41.26"/><path class="cls-2" d="M482.14,430.63h11.65L490,450.75h.18c1.32-2,2.7-3.69,4-5.41l11.5-14.71h14.74l-18.63,20.23,10.36,26.54H499.26l-6.8-19.2-4.67,4.51L485,477.4H473.29Z" transform="translate(-427.26 -342.16)"/><path class="cls-2" d="M534.84,455.32l-1.56,8.13h-18.6l1.56-8.13Z" transform="translate(-427.26 -342.16)"/><path class="cls-2" d="M537,477.4l8.84-46.77h14.09l4.2,14.12c1.84,6.23,3.17,11.57,4.34,17.23h.19a121.54,121.54,0,0,1,2.24-17.7l2.55-13.65h11l-8.85,46.77H563.25l-4.72-15.27c-2-6.61-3.34-11.26-4.66-17.52h-.25c-.5,4.65-1.77,12.09-3.24,19.9L548,477.4Z" transform="translate(-427.26 -342.16)"/><path class="cls-2" d="M616.15,458.51H599.7l-1.7,8.81h18.48l-1.91,10.08H584.24l8.85-46.77h29.35l-2,10.06H603.06l-1.52,7.86h16.53Z" transform="translate(-427.26 -342.16)"/><path class="cls-2" d="M637.1,441H625.35l2-10.34H662.9l-2,10.34h-12L642.1,477.4H630.26Z" transform="translate(-427.26 -342.16)"/></svg>