<svg id="Layer_1" data-name="Layer 1" xmlns="http://www.w3.org/2000/svg" viewBox="0 0 280.73 229.75"><defs><style>.cls-1{fill:#fff;}.cls-2{fill:#231f20;}</style></defs><title>MASTER</title><rect class="cls-1" width="280.73" height="229.75" rx="41.26"/><path class="cls-2" d="M495.7,477.4l2.64-16.74c.85-5.31,1.87-11.56,3.38-19.31h-.17c-2.83,6.66-5.85,13.46-8.4,18.77l-7.69,16.31H476.2l-.89-16.26c-.27-5-.6-11.95-.81-18.82h-.14c-1.51,7-2.86,14-4.08,19.31l-3.85,16.74H455.61l11.59-46.77h16l.54,13.88c.18,4.54.68,10.29.64,16.24h.3c2.06-5.95,4.74-12,6.73-16.35l6.16-13.77h16.15l-6.5,46.77Z" transform="translate(-443.88 -342.16)"/><path class="cls-2" d="M529.25,466.4l-4.65,11H511.92l22.22-46.77H549.6l5,46.77H542.12l-.54-11Zm11.9-8.93-.52-8.59c-.18-2.62-.35-6.52-.57-9.42h-.14c-1.2,2.9-2.54,6.83-3.73,9.45l-3.59,8.56Z" transform="translate(-443.88 -342.16)"/><path class="cls-2" d="M561.89,465A23.75,23.75,0,0,0,573.41,468c3.26,0,6.23-1.21,6.23-4,0-2.32-2.08-3.62-6.09-5.72-4.53-2.4-9.85-6-9.85-12.55,0-9.92,8.71-15.8,19.55-15.8,6.19,0,9.52,1.18,11.73,2.24l-3.65,9.9a19.83,19.83,0,0,0-9-2c-4.2,0-6.19,1.68-6.19,3.67,0,2.26,3.09,3.75,6.64,5.76,5.66,2.92,9.42,6.75,9.42,12.3,0,11.4-9.61,16.33-20,16.33-7.29,0-12-1.82-14.3-3.38Z" transform="translate(-443.88 -342.16)"/><path class="cls-2" d="M611.52,441H599.78l2-10.34h35.51l-2,10.34h-12l-6.84,36.43H604.69Z" transform="translate(-443.88 -342.16)"/><path class="cls-2" d="M666.07,458.51H649.62l-1.7,8.81H666.4l-1.91,10.08H634.16L643,430.63h29.35l-2,10.06H653l-1.52,7.86H668Z" transform="translate(-443.88 -342.16)"/><path class="cls-2" d="M680.31,431.58a61.93,61.93,0,0,1,13.51-1.26c4.32,0,9.2.43,12.79,2.39a10.48,10.48,0,0,1,5.91,9.73c0,7-4.33,11-10.35,13.08l-.06.26c2.57,1.29,3.66,4.19,4.17,8.16.6,4.7,1,11.5,1.91,13.46H696a73.43,73.43,0,0,1-1.42-10.93c-.45-5.32-2.22-6.68-5.88-6.68h-2.15l-3.34,17.61H671.54Zm8,19.43H692c4.62,0,8.26-2.63,8.26-6.75,0-3.24-2.89-4.68-6.33-4.68a18.93,18.93,0,0,0-3.49.26Z" transform="translate(-443.88 -342.16)"/></svg>