<svg xmlns="http://www.w3.org/2000/svg" width="67.442" height="41.594" viewBox="0 0 67.442 41.594">
  <path id="retweet-solid" d="M70.007,90.811,59.286,101.532a2.556,2.556,0,0,1-3.614,0L44.951,90.811a2.555,2.555,0,0,1,0-3.614L46.1,86.045a2.556,2.556,0,0,1,3.665.052l4.3,4.557V71.261H34.1a2.556,2.556,0,0,1-1.807-.748l-1.7-1.7A2.556,2.556,0,0,1,32.4,64.447H58.331A2.556,2.556,0,0,1,60.886,67V90.653l4.3-4.557a2.556,2.556,0,0,1,3.665-.052L70.007,87.2a2.556,2.556,0,0,1,0,3.614ZM41.775,92.454a2.555,2.555,0,0,0-1.807-.748H20V72.313l4.3,4.557a2.556,2.556,0,0,0,3.665.052l1.152-1.152a2.555,2.555,0,0,0,0-3.614L18.4,61.435a2.555,2.555,0,0,0-3.614,0L4.062,72.156a2.555,2.555,0,0,0,0,3.614l1.152,1.152a2.556,2.556,0,0,0,3.665-.052l4.3-4.557V95.965a2.556,2.556,0,0,0,2.556,2.556H41.672a2.556,2.556,0,0,0,1.807-4.363l-1.7-1.7Z" transform="translate(-3.313 -60.686)" fill="#fafafa"/>
</svg>
