<svg xmlns="http://www.w3.org/2000/svg" width="49.724" height="38.074" viewBox="0 0 49.724 38.074">
  <path id="sign-in-alt-solid" d="M40.4,101.293H32.243a1.169,1.169,0,0,1-1.165-1.165V96.243a1.169,1.169,0,0,1,1.165-1.165H40.4a3.1,3.1,0,0,0,3.108-3.108V73.323A3.1,3.1,0,0,0,40.4,70.216H32.243a1.169,1.169,0,0,1-1.165-1.165V65.165A1.169,1.169,0,0,1,32.243,64H40.4a9.326,9.326,0,0,1,9.323,9.323V91.97A9.326,9.326,0,0,1,40.4,101.293ZM35.837,81.773,19.521,65.457a2.335,2.335,0,0,0-3.982,1.651v9.323H2.331A2.325,2.325,0,0,0,0,78.762v9.323a2.325,2.325,0,0,0,2.331,2.331H15.539v9.323a2.335,2.335,0,0,0,3.982,1.651L35.837,85.075A2.351,2.351,0,0,0,35.837,81.773Z" transform="translate(0 -64)" fill="#fafafa"/>
</svg>
