<svg xmlns="http://www.w3.org/2000/svg" width="42.458" height="42.458" viewBox="0 0 42.458 42.458">
  <path id="sync-alt-solid" d="M39.049,18.724a14.385,14.385,0,0,0-23.768,6.983,1.03,1.03,0,0,1-1,.783H9.378a1.027,1.027,0,0,1-1.011-1.213,21.232,21.232,0,0,1,35.526-11.4l3.057-3.057a2.054,2.054,0,0,1,3.507,1.453V23.751A2.054,2.054,0,0,1,48.4,25.805H36.928A2.054,2.054,0,0,1,35.476,22.3Zm-29,13.929H21.53a2.054,2.054,0,0,1,1.453,3.507l-3.574,3.574a14.385,14.385,0,0,0,23.768-6.982,1.03,1.03,0,0,1,1-.783H49.08a1.027,1.027,0,0,1,1.011,1.213,21.232,21.232,0,0,1-35.526,11.4l-3.057,3.057A2.054,2.054,0,0,1,8,46.183V34.708A2.054,2.054,0,0,1,10.054,32.653Z" transform="translate(-8 -8)" fill="#fafafa"/>
</svg>
