<svg xmlns="http://www.w3.org/2000/svg" width="36.424" height="36.424" viewBox="0 0 36.424 36.424">
  <path id="times-solid" d="M25.116,98.212,35.471,87.857a3.255,3.255,0,0,0,0-4.6l-2.3-2.3a3.255,3.255,0,0,0-4.6,0L18.212,91.308,7.857,80.953a3.255,3.255,0,0,0-4.6,0l-2.3,2.3a3.255,3.255,0,0,0,0,4.6L11.308,98.212.953,108.567a3.255,3.255,0,0,0,0,4.6l2.3,2.3a3.255,3.255,0,0,0,4.6,0l10.355-10.355,10.355,10.355a3.255,3.255,0,0,0,4.6,0l2.3-2.3a3.255,3.255,0,0,0,0-4.6Z" transform="translate(0 -80)" fill="#ff0808"/>
</svg>
