<svg id="Layer_1" data-name="Layer 1" xmlns="http://www.w3.org/2000/svg" viewBox="0 0 280.73 229.75"><defs><style>.cls-1{fill:#fff;}.cls-2{fill:#231f20;}</style></defs><title>visa</title><rect class="cls-1" width="280.73" height="229.75" rx="41.26"/><path class="cls-2" d="M494.9,477.4l-5.81-46.77h12.23l1.55,18.91c.48,5,.83,10.41,1.19,16h.14c2-5.29,4.51-11,6.73-15.75l8.56-19.17h13.25L508.8,477.4Z" transform="translate(-415.98 -342.16)"/><path class="cls-2" d="M549.6,430.63l-8.85,46.77H528.92l8.85-46.77Z" transform="translate(-415.98 -342.16)"/><path class="cls-2" d="M552,465A23.89,23.89,0,0,0,563.56,468c3.27,0,6.23-1.21,6.23-4,0-2.32-2.08-3.62-6.09-5.72-4.53-2.4-9.85-6-9.85-12.55,0-9.92,8.71-15.8,19.55-15.8,6.19,0,9.52,1.18,11.73,2.24l-3.64,9.9a19.92,19.92,0,0,0-9-2c-4.2,0-6.19,1.68-6.19,3.67,0,2.26,3.09,3.75,6.64,5.76,5.66,2.92,9.42,6.75,9.42,12.3,0,11.4-9.61,16.33-20,16.33-7.29,0-12-1.82-14.3-3.38Z" transform="translate(-415.98 -342.16)"/><path class="cls-2" d="M600,466.4l-4.65,11H582.63l22.22-46.77h15.46l5,46.77H612.83l-.54-11Zm11.9-8.93-.52-8.59c-.17-2.62-.35-6.52-.57-9.42h-.14c-1.2,2.9-2.54,6.83-3.73,9.45l-3.59,8.56Z" transform="translate(-415.98 -342.16)"/></svg>